<?xml version="1.0" encoding="utf-8"?>
<!-- Svg Vector Icons : http://www.onlinewebfonts.com/icon -->
<!DOCTYPE svg PUBLIC "-//W3C//DTD SVG 1.1//EN" "http://www.w3.org/Graphics/SVG/1.1/DTD/svg11.dtd">
<svg version="1.1" xmlns="http://www.w3.org/2000/svg" xmlns:xlink="http://www.w3.org/1999/xlink" x="0px" y="0px" viewBox="0 0 1000 1000" enable-background="new 0 0 1000 1000" xml:space="preserve">
<metadata> Svg Vector Icons : http://www.onlinewebfonts.com/icon </metadata>
<g><path d="M570,34.8c-367.5,0-420,352.3-420,352.3H10l210,211.4l210-211.4H255c0,0,61.2-246.6,315-246.6c247.9,0,316.1,246.6,315,352.3c-0.3,28.4-6.6,59.1-17.6,90.1c37,17.7,68.3,45.5,90.4,79.8C979,606.5,990,547.9,990,492.8C990,319.5,873.3,34.8,570,34.8z M605,210.9H500V528l107.2,107.9c22.3-25.3,50.3-45.4,82.1-58.3L605,492.8V210.9z M561.2,844.5C446.7,835.7,360,739.4,360,739.4L255,845.1c0,0,124,105.7,315,105.7c19.5,0,38.4-1.3,56.6-3.9C596.1,919.9,573.1,884.6,561.2,844.5z"/><path d="M772.4,598.1c-101.4,0-183.6,82.2-183.6,183.6S671,965.2,772.4,965.2S955.9,883,955.9,781.7C955.9,680.3,873.7,598.1,772.4,598.1z M898.7,809.9H647.4v-56.5h251.3V809.9z M744.7,753.4V656h56.5v97.4H744.7z M744.7,907.3v-97.4h56.5v97.4H744.7z"/></g>
</svg>